<svg id="Layer_1" data-name="Layer 1" xmlns="http://www.w3.org/2000/svg" viewBox="0 0 98.6 76.08"><defs><style>.cls-1{fill:#e1efde;}.cls-2{fill:none;stroke:#afcfbe;stroke-miterlimit:10;stroke-width:4px;}</style></defs><path class="cls-1" d="M315.11,310.45c4,6,2.11,14.4-4.27,18.7l-67.17,45.31c-6.38,4.31-14.9,2.94-18.94-3S222.62,357,229,352.72l67.16-45.31C302.55,303.1,311.07,304.47,315.11,310.45Z" transform="translate(-220.62 -302.9)"/><path class="cls-2" d="M315.11,310.45c4,6,2.11,14.4-4.27,18.7l-67.17,45.31c-6.38,4.31-14.9,2.94-18.94-3S222.62,357,229,352.72l67.16-45.31C302.55,303.1,311.07,304.47,315.11,310.45Z" transform="translate(-220.62 -302.9)"/></svg>