<svg id="Layer_1" data-name="Layer 1" xmlns="http://www.w3.org/2000/svg" viewBox="0 0 276.92 199.52"><defs>
<style>.cls-1{fill:#e1efde;}.cls-2{fill:none;stroke:#afcfbe;}.cls-2,.cls-3,.cls-4{stroke-miterlimit:10;stroke-width:4px;}.cls-3{fill:#ffdad7;stroke:#fdbcb4;}.cls-4{fill:beige;stroke:#d6d5bd;}</style></defs>
	<path class="cls-1" d="M94.49,7.55c4,6,2.11,14.4-4.27,18.7L23.05,71.56c-6.38,4.31-14.9,2.94-18.94-3S2,54.1,8.38,49.82L75.54,4.51C81.93.2,90.45,1.57,94.49,7.55Z" transform="translate(113.1 123.45)"/>
	<path class="cls-2" d="M94.49,7.55c4,6,2.11,14.4-4.27,18.7L23.05,71.56c-6.38,4.31-14.9,2.94-18.94-3S2,54.1,8.38,49.82L75.54,4.51C81.93.2,90.45,1.57,94.49,7.55Z" transform="translate(113.1 123.45)"/><path class="cls-3" d="M-6.07-20.42c-2.09,6.9-9.78,10.77-17.15,8.58l-77.67-23.09c-7.38-2.19-11.74-9.64-9.71-16.53s9.82-10.82,17.18-8.61L-15.76-37C-8.37-34.79-4-27.34-6.07-20.42Z" transform="translate(113.1 123.45)"/>
	<path class="cls-4" d="M161.43-111.85c1.81,7-2.74,14.29-10.18,16.26L72.92-74.89c-7.45,2-15-2.12-16.9-9.06s2.76-14.35,10.19-16.29l78.32-20.71C152-122.92,159.58-118.83,161.43-111.85Z" transform="translate(113.1 123.45)"/>
</svg>