<svg id="Layer_1" data-name="Layer 1" xmlns="http://www.w3.org/2000/svg" viewBox="0 0 356.79 293.91"><path d="M286.25,297.74a4.87,4.87,0,0,1,0,.54c-.09,1.77,2,13.62,0,19.54-2.08,6.23-16.61,41.53-18.34,107.63s3.11,86.51,3.46,87.9,15.92,5.88,28.72,6.23,31.15-1.39,33.92-2.77,6.23-3.46,6.57-5.19S346,456.15,343.94,426c-5-72.15-15.49-101.22-16.88-110.56a60.39,60.39,0,0,1,.22-17.13c.16-.88.56-4.27.85-6.41.21-1.47,1.56-5.19,1.56-6.4,0-1.37-.18-2.2-1.81-2.85-4.33-1.73-15.75-2.27-20-2.43-4.84-.17-15.66,1.47-18.52,2.17-3.06.74-3.45.77-4.41,1.9-1.63,1.93.86,6.66,1,9.6C286.08,295.08,286.21,297.2,286.25,297.74Z" transform="translate(-126.76 -235.7)" style="fill:#6095cf"/><text transform="translate(4.91 208.79)" style="font-size:173px;fill:#231f20;font-family:RelationTwo-Bold, Relation Two;font-weight:700">Milky</text><path d="M313.54,271.79c-.83-1.37,17.53-43.06,35-35.07,13.47,6.17,3.15,14.73-9.63,18.14a52.6,52.6,0,0,0-13.23,6.72A132.14,132.14,0,0,0,313.54,271.79Z" transform="translate(-126.76 -235.7)" style="fill:#6095cf"/><path d="M294.78,271.79S262,238.19,251,248.56c-5.09,4.81,1.33,15,14.55,14.5a53,53,0,0,1,14.62,2.53A134.1,134.1,0,0,1,294.78,271.79Z" transform="translate(-126.76 -235.7)" style="fill:#6095cf"/><path d="M335.54,275.8s27.29-7.42,29.91,1.31c1.21,4.05-5.23,7.37-12,3.08A32,32,0,0,0,345,277,80.76,80.76,0,0,0,335.54,275.8Z" transform="translate(-126.76 -235.7)" style="fill:#6095cf"/></svg>